<?xml version="1.0" encoding="UTF-8" standalone="no"?>
<!-- Created with Inkscape (http://www.inkscape.org/) -->

<svg
   xmlns:dc="http://purl.org/dc/elements/1.1/"
   xmlns:cc="http://creativecommons.org/ns#"
   xmlns:rdf="http://www.w3.org/1999/02/22-rdf-syntax-ns#"
   xmlns:svg="http://www.w3.org/2000/svg"
   xmlns="http://www.w3.org/2000/svg"
   xmlns:sodipodi="http://sodipodi.sourceforge.net/DTD/sodipodi-0.dtd"
   xmlns:inkscape="http://www.inkscape.org/namespaces/inkscape"
   width="841mm"
   height="594mm"
   viewBox="0 0 841 594"
   version="1.1"
   id="svg1615"
   inkscape:version="0.92.4 (unknown)"
   sodipodi:docname="Coconut_NEON_Rounded.svg">
  <defs
     id="defs1609" />
  <sodipodi:namedview
     id="base"
     pagecolor="#ffffff"
     bordercolor="#666666"
     borderopacity="1.0"
     inkscape:pageopacity="0.0"
     inkscape:pageshadow="2"
     inkscape:zoom="0.35"
     inkscape:cx="1427.7825"
     inkscape:cy="1144.6465"
     inkscape:document-units="mm"
     inkscape:current-layer="layer1"
     showgrid="false"
     inkscape:window-width="1855"
     inkscape:window-height="1056"
     inkscape:window-x="65"
     inkscape:window-y="24"
     inkscape:window-maximized="1" />
  <metadata
     id="metadata1612">
    <rdf:RDF>
      <cc:Work
         rdf:about="">
        <dc:format>image/svg+xml</dc:format>
        <dc:type
           rdf:resource="http://purl.org/dc/dcmitype/StillImage" />
        <dc:title></dc:title>
      </cc:Work>
    </rdf:RDF>
  </metadata>
  <g
     inkscape:label="Layer 1"
     inkscape:groupmode="layer"
     id="layer1"
     transform="translate(0,297)">
    <rect
       style="opacity:0.5;fill:#d45500;fill-opacity:1;stroke:#803300;stroke-width:9.34422493;stroke-linecap:round;stroke-linejoin:round;stroke-miterlimit:4;stroke-dasharray:none;stroke-opacity:1;paint-order:normal"
       id="rect2172"
       width="590.65576"
       height="540.65582"
       x="34.945919"
       y="-271.04227" />
    <path
       sodipodi:nodetypes="caaaaaaaaccccccccccccccacccccccccccccccc"
       inkscape:connector-curvature="0"
       id="path11116-2-7"
       d="m 275.00534,156.5533 c -17.06372,-9.73429 -30.27144,-24.95251 -41.356,-40.84352 -5.51913,-7.91215 -9.06441,-17.149869 -11.97243,-26.347979 -3.56136,-11.26447 -5.24312,-23.08995 -6.55179,-34.83131 -1.22823,-11.01831 -2.09267,-22.18748 -1.19972,-33.23804 0.86049,-10.650079 2.74122,-21.35205946 6.28424,-31.43227 4.36513,-12.419109 9.68812,-25.003109 18.19035,-35.053069 5.97549,-7.06341 14.06342,-12.24447 22.17731,-16.69015 6.28593,-3.44401 13.09483,-6.2261 20.14417,-7.5208 22.19452,-4.07613 67.69579,-0.40228 67.69579,-0.40228 l 10.31833,1.55615 c 7.136,1.07622 10.21561,9.6529 5.39411,15.02269 l -3.95478,4.40441 c -2.15871,2.40426 -5.4339,3.47794 -8.59705,2.81836 l -3.34687,-0.69794 c -16.09005,-2.78525 -32.48913,-4.68672 -48.80073,-2.89876 -6.8834,0.56546 -13.86078,2.1535 -20.26779,4.68213 -5.75621,2.67558 -12.01336,7.41285 -11.25164,14.48285 0.85767,9.25951 9.16009,15.573309 16.12025,20.7780494 8.72462,5.9010701 18.68283,10.60176014 28.28065,14.1050101 -2.78892,14.4942295 -7.91098,29.1655595 -6.50071,44.0108095 7.53279,15.09329 26.8526,-7.21145 32.33166,-16.50624 4.60135,-6.13283 13.33924,-19.606409 13.33924,-19.606409 0,0 18.63908,3.723449 33.89178,4.059539 8.79065,-1.52021 18.14293,-1.00197 26.09003,-5.584999 3.92938,-1.3554105 8.12207,-3.2051705 9.94325,-6.7794605 2.1957,-4.30972996 2.4765,-10.1825001 -0.43463,-14.5039905 l -1.28466,-1.28894 c -3.32345,-3.33449 -3.54189,-8.657899 -0.50265,-12.253419 l 1.67613,-1.98286 c 3.4575,-4.09067 9.68897,-4.30826 13.42361,-0.46877 l 1.9702,2.02557 c 0.38748,0.39841 0.73773,0.83165 1.04592,1.29418 l 8.26093,12.397829 c 3.24244,7.8794105 6.882,15.6459505 7.52771,24.263351 2.12458,9.366049 1.03264,19.074129 0.59013,28.562869 -2.35204,15.71165 -6.0311,31.40083 -13.37734,45.58946 -4.3118,11.76335 -12.18636,21.563589 -18.85018,32.030879 -8.41672,8.72683 -15.91255,18.47503 -26.21873,25.10668 -3.21029,2.4265 -6.42027,4.85302 -9.63057,7.27949"
       style="font-style:normal;font-variant:normal;font-weight:normal;font-stretch:normal;font-size:10.45306873px;line-height:103.99999619%;font-family:BubbleGum;-inkscape-font-specification:BubbleGum;text-align:center;letter-spacing:0px;word-spacing:0px;text-anchor:middle;fill:none;fill-opacity:1;stroke:#ffff00;stroke-width:9.00000095;stroke-linecap:round;stroke-miterlimit:4;stroke-dasharray:none;stroke-opacity:1;opacity:0.5" />
    <path
       style="fill:none;fill-rule:evenodd;stroke:#ffff00;stroke-width:9.00000095;stroke-linecap:round;stroke-linejoin:miter;stroke-miterlimit:4;stroke-dasharray:none;stroke-opacity:1;opacity:0.5"
       d="m 269.97191,166.9614 -8.57278,16.93463 a 9.0666668,9.0666668 0 0 1 -11.84882,4.15544 l -13.07169,-5.95673 a 9.0666668,9.0666668 0 0 0 -8.7105,0.65482 l -40.53587,26.42142 a 9.0666668,9.0666668 0 0 1 -11.30413,-1.1272 l -36.07731,-35.43557 a 9.0666668,9.0666668 0 0 1 -1.16332,-11.53837 l 27.36398,-40.56914 a 9.0666668,9.0666668 0 0 0 0.88251,-8.48419 L 149.79773,69.859551 a 9.0666668,9.0666668 0 0 0 -6.51961,-5.45544 L 93.020828,53.752961 a 9.0666668,9.0666668 0 0 1 -7.18679,-8.86968 V -3.4629485 a 9.0666668,9.0666668 0 0 1 7.03778,-8.8367505 l 53.911212,-12.378209 a 9.0666668,9.0666668 0 0 0 6.36045,-5.39823 l 15.55496,-37.9515 a 9.0666668,9.0666668 0 0 0 -0.87659,-8.51405 l -29.05703,-43.010472 a 9.0666668,9.0666668 0 0 1 1.15852,-11.54289 l 36.1284,-35.4976 a 9.0666668,9.0666668 0 0 1 11.17741,-1.21014 l 47.60976,29.90844 a 9.0666668,9.0666668 0 0 0 8.20956,0.73293 l 34.99612,-14.09211 a 9.0666668,9.0666668 0 0 0 5.47568,-6.49749 l 11.49576,-53.26098 a 9.0666668,9.0666668 0 0 1 8.73478,-7.15287 l 52.00705,-0.73403 a 9.0666668,9.0666668 0 0 1 8.97636,7.08779 l 12.07347,54.01005 a 9.0666668,9.0666668 0 0 0 5.46523,6.43385 l 35.15106,14.13702 a 9.0666668,9.0666668 0 0 0 8.12067,-0.6814 l 48.57724,-29.77021 a 9.0666668,9.0666668 0 0 1 11.23045,1.4023 l 35.31844,36.23847 a 9.0666668,9.0666668 0 0 1 1.06849,11.33083 l -29.3102,44.302792 a 9.0666668,9.0666668 0 0 0 -0.67056,8.80223 l 17.17831,37.21836 a 9.0666668,9.0666668 0 0 0 6.35508,5.07066 l 51.93086,10.989569 a 9.0666668,9.0666668 0 0 1 7.18934,8.9537505 l -0.45212,49.0794995 a 9.0666668,9.0666668 0 0 1 -7.30195,8.80978 l -49.51759,9.82414 a 9.0666668,9.0666668 0 0 0 -6.63474,5.47881 L 493.39144,111.9178 a 9.0666668,9.0666668 0 0 0 0.88392,8.48659 l 27.37556,40.56205 a 9.0666668,9.0666668 0 0 1 -1.15964,11.53829 l -36.16735,35.54802 a 9.0666668,9.0666668 0 0 1 -11.15343,1.22679 l -42.9909,-26.81337 a 9.0666668,9.0666668 0 0 0 -8.73112,-0.47623 l -11.08427,5.33636 a 9.0666668,9.0666668 0 0 1 -12.24931,-4.55758 l -8.84624,-20.36959"
       id="path1183"
       inkscape:connector-curvature="0"
       sodipodi:nodetypes="cccccccccccccccccccccccccccccccc" />
    <path
       style="fill:none;fill-rule:evenodd;stroke:#ffff00;stroke-width:9.00000095;stroke-linecap:butt;stroke-linejoin:miter;stroke-miterlimit:4;stroke-dasharray:none;stroke-opacity:1;opacity:0.5"
       d="m 363.97788,-26.234358 a 9.0666668,9.0666668 0 0 0 3.61469,14.977589 l 9.05031,2.9852304 a 9.0666668,9.0666668 0 0 0 9.54363,-2.5057104 l 92.27595,-101.328511 a 9.0666668,9.0666668 0 0 0 -0.90424,-13.07411 l -2.37011,-1.97205 a 9.0666668,9.0666668 0 0 0 -12.25381,0.60223 z"
       id="path1321"
       inkscape:connector-curvature="0"
       sodipodi:nodetypes="ccccc" />
    <path
       style="color:#000000;font-style:normal;font-variant:normal;font-weight:normal;font-stretch:normal;font-size:10.45306873px;line-height:103.99999619%;font-family:BubbleGum;-inkscape-font-specification:BubbleGum;font-variant-ligatures:normal;font-variant-position:normal;font-variant-caps:normal;font-variant-numeric:normal;font-variant-alternates:normal;font-feature-settings:normal;text-indent:0;text-align:center;text-decoration:none;text-decoration-line:none;text-decoration-style:solid;text-decoration-color:#000000;letter-spacing:0px;word-spacing:0px;text-transform:none;writing-mode:lr-tb;direction:ltr;text-orientation:mixed;dominant-baseline:auto;baseline-shift:baseline;text-anchor:middle;white-space:normal;shape-padding:0;clip-rule:nonzero;display:inline;overflow:visible;visibility:visible;opacity:1;isolation:auto;mix-blend-mode:normal;color-interpolation:sRGB;color-interpolation-filters:linearRGB;solid-color:#000000;solid-opacity:1;vector-effect:none;fill:none;fill-opacity:1;fill-rule:nonzero;stroke:#ff0000;stroke-width:0.3;stroke-linecap:round;stroke-linejoin:miter;stroke-miterlimit:4;stroke-dasharray:none;stroke-dashoffset:0;stroke-opacity:1;color-rendering:auto;image-rendering:auto;shape-rendering:auto;text-rendering:auto;enable-background:accumulate"
       d="m 300.56445,-75.703125 c -7.51025,0.22951 -14.72082,0.782977 -20.65625,1.873047 -7.66948,1.408597 -14.90093,4.388706 -21.49218,8 h -0.002 c -8.30083,4.548107 -16.88137,9.966853 -23.44922,17.730469 -9.10039,10.757009 -14.57071,23.865154 -19,36.466797 -3.70822,10.5502326 -5.642,21.6289922 -6.52539,32.5625 -0.93133,11.525597 -0.0267,22.979572 1.21289,34.099609 1.31884,11.832586 3.02288,23.950113 6.73438,35.689453 2.96386,9.37474 6.63018,19.04791 12.57226,27.56641 11.27292,16.16103 24.86741,31.93842 42.81641,42.17773 a 4.5004505,4.5004505 0 1 0 4.45899,-7.81836 c -16.17845,-9.22927 -28.99833,-23.88878 -39.89454,-39.50976 -5.09617,-7.30581 -8.52086,-16.107428 -11.37304,-25.128911 -3.41123,-10.789599 -5.07064,-22.324475 -6.36914,-33.974609 -1.21689,-10.916583 -2.04207,-21.80143 -1.1875,-32.376953 0.83759,-10.366651 2.6671,-20.6925465 6.04492,-30.3027345 4.30097,-12.2365755 9.47679,-24.2957615 17.38086,-33.6386715 5.38313,-6.363205 12.97735,-11.307138 20.90429,-15.650391 5.98061,-3.276726 12.36573,-5.860213 18.79493,-7.041016 10.32366,-1.89599 27.2018,-2.061587 41.22656,-1.65625 13.96087,0.403491 25.07571,1.300376 25.17773,1.308594 l 10.125,1.525391 c 3.83873,0.578939 5.3105,4.677759 2.7168,7.566406 l -3.95508,4.404297 c -1.092,1.216213 -2.72991,1.753589 -4.33008,1.419922 l -3.42187,-0.712891 -0.0762,-0.01367 c -16.23349,-2.810079 -33.02981,-4.788681 -49.98438,-2.941406 -7.30521,0.604879 -14.67287,2.27668 -21.5039,4.972656 l -0.12305,0.04883 -0.1211,0.05664 c -3.23349,1.50298 -6.70703,3.578576 -9.5,6.644531 -2.78841,3.060955 -4.85168,7.440647 -4.32812,12.376953 1.10732,11.701014 10.92391,18.708345 17.89844,23.9238285 l 0.0859,0.064453 0.0879,0.058594 c 8.00216,5.41242387 16.87256,9.6215679 25.59765,13.0488281 -2.82576,13.0684365 -7.18551,26.9219415 -5.77539,41.7656245 l 0.0781,0.833985 0.375,0.75 c 2.42416,4.857255 7.14591,7.755747 11.6582,7.582031 4.51229,-0.173716 8.3948,-2.386743 12.00781,-5.101562 7.09654,-5.332351 13.19336,-13.113197 16.36133,-18.396485 4.06125,-5.425498 9.71773,-14.062424 11.8125,-17.277343 3.99705,0.764225 17.86182,3.327031 31.65039,3.630859 l 0.43555,0.0078 0.42968,-0.07422 c 8.09336,-1.399623 18.1725,-0.701448 27.57032,-6.121094 l -0.7793,0.357422 c 4.18965,-1.44519 9.67998,-3.486264 12.48438,-8.9902346 v -0.00195 c 2.87588,-5.64480842 3.33054,-13.0610778 -0.71094,-19.0605472 l -0.24219,-0.357422 -1.58789,-1.59375 c -1.70256,-1.708211 -1.81085,-4.329955 -0.25391,-6.171874 l 1.67774,-1.982422 c 1.78752,-2.114873 4.82881,-2.221491 6.75976,-0.236328 l 1.97071,2.02539 c 0.19564,0.201162 0.37252,0.419988 0.52734,0.652344 l 8.00195,12.0097655 c 3.24188,7.85355905 6.48599,15.0589246 7.04297,22.4921875 l 0.0254,0.333984 0.0742,0.324219 c 1.8845,8.307651 0.95115,17.499603 0.49414,27.089844 -2.3163,15.400742 -5.91164,30.522508 -12.88867,43.998047 l -0.13086,0.253906 -0.0977,0.267578 c -3.93197,10.727117 -11.39476,20.193847 -18.17187,30.783207 -8.51334,8.87013 -15.77049,18.11116 -25.10742,24.11914 l -0.14258,0.0918 -0.13672,0.10157 c -3.21041,2.42659 -6.4207,4.85293 -9.63086,7.27929 a 4.5004505,4.5004505 0 1 0 5.42774,7.17969 c 3.21043,-2.42657 6.42069,-4.85289 9.63086,-7.2793 l -0.2793,0.19532 c 11.15874,-7.18025 18.84237,-17.28508 27.02344,-25.76758 l 0.31445,-0.32617 0.24219,-0.38086 c 6.4847,-10.18594 14.63615,-20.23114 19.27929,-32.898441 l -0.22851,0.519532 c 7.68694,-14.846666 11.44321,-31.034819 13.83203,-46.992188 l 0.0332,-0.226562 0.01,-0.230469 c 0.43311,-9.287305 1.65126,-19.422905 -0.69531,-29.767578 l 0.0976,0.660156 c -0.7248,-9.6729513 -4.66603,-17.8947745 -7.85351,-25.640625 l -0.16797,-0.412109 -8.50977,-12.767578 c -0.46156,-0.692704 -0.98513,-1.341843 -1.56445,-1.9375 l -1.9707,-2.025391 c -5.53833,-5.693817 -14.95847,-5.365296 -20.08594,0.701172 l -1.67578,1.982422 c -4.52154,5.34912 -4.19239,13.375169 0.75195,18.3359371 l 0.83008,0.8339844 c 1.6554,2.6568662 1.54712,6.83387736 0.0664,9.7402344 -0.83796,1.6446091 -3.73128,3.302728 -7.40039,4.5683593 l -0.40625,0.1386719 -0.375,0.2167969 c -6.34565,3.65949 -14.75636,3.452532 -23.98437,4.96875 -14.56448,-0.355209 -32.86719,-3.9589844 -32.86719,-3.9589844 l -2.99414,-0.5976562 -1.66211,2.5625 c 0,0 -8.82025,13.5639426 -13.16406,19.3535156 l -0.15039,0.201172 -0.12696,0.214844 c -2.36417,4.010641 -8.5358,11.81283 -14.22265,16.085937 -2.84343,2.136553 -5.54532,3.25079 -6.94531,3.304688 -1.22028,0.04698 -1.83777,-0.234885 -2.84766,-2.009766 -0.97205,-13.252817 3.67407,-27.164946 6.48047,-41.75 L 317.45508,1.5332031 313.85547,0.21875 c -9.29212,-3.3916692 -18.91173,-7.9451495 -27.2207,-13.552734 -6.90381,-5.16766 -13.61602,-10.7574 -14.24219,-17.517578 l -0.004,-0.0332 -0.004,-0.0332 c -0.22882,-2.123813 0.45092,-3.637878 2.03515,-5.376953 1.55857,-1.7109 4.0376,-3.30842 6.51953,-4.476562 5.93565,-2.327993 12.45715,-3.819771 18.85938,-4.345704 l 0.0605,-0.0039 0.0605,-0.0078 c 15.63121,-1.713381 31.59528,0.102759 47.50586,2.855468 l 3.23438,0.673829 c 4.72613,0.985492 9.63786,-0.62449 12.86328,-4.216797 l 3.95508,-4.404297 c 7.0493,-7.850933 2.36101,-20.905015 -8.07227,-22.478516 l -10.47266,-1.580078 -0.15429,-0.01172 c 0,0 -11.48331,-0.927288 -25.75782,-1.339843 -7.13725,-0.206278 -14.94677,-0.301776 -22.45703,-0.07227 z"
       id="path2174"
       inkscape:connector-curvature="0" />
    <path
       style="color:#000000;font-style:normal;font-variant:normal;font-weight:normal;font-stretch:normal;font-size:medium;line-height:normal;font-family:sans-serif;font-variant-ligatures:normal;font-variant-position:normal;font-variant-caps:normal;font-variant-numeric:normal;font-variant-alternates:normal;font-feature-settings:normal;text-indent:0;text-align:start;text-decoration:none;text-decoration-line:none;text-decoration-style:solid;text-decoration-color:#000000;letter-spacing:normal;word-spacing:normal;text-transform:none;writing-mode:lr-tb;direction:ltr;text-orientation:mixed;dominant-baseline:auto;baseline-shift:baseline;text-anchor:start;white-space:normal;shape-padding:0;clip-rule:nonzero;display:inline;overflow:visible;visibility:visible;opacity:1;isolation:auto;mix-blend-mode:normal;color-interpolation:sRGB;color-interpolation-filters:linearRGB;solid-color:#000000;solid-opacity:1;vector-effect:none;fill:none;fill-opacity:1;fill-rule:evenodd;stroke:#ff0000;stroke-width:0.3;stroke-linecap:round;stroke-linejoin:miter;stroke-miterlimit:4;stroke-dasharray:none;stroke-dashoffset:0;stroke-opacity:1;color-rendering:auto;image-rendering:auto;shape-rendering:auto;text-rendering:auto;enable-background:accumulate"
       d="m 355.69336,-223.39844 -52.00586,0.73438 c -6.29263,0.0887 -11.74255,4.55153 -13.07031,10.70312 l -11.4961,53.25977 c -0.32067,1.48576 -1.34787,2.70564 -2.75781,3.27344 l -34.99609,14.09179 c -1.36182,0.54837 -2.89162,0.41179 -4.13477,-0.36914 l -47.60937,-29.9082 c -5.30103,-3.33013 -12.25915,-2.57697 -16.72461,1.81055 l -36.12891,35.49804 c -4.64672,4.56554 -5.38109,11.87357 -1.73437,17.27149 l 29.05859,43.009762 c 0.85803,1.270024 1.02266,2.870854 0.44141,4.289063 l -15.55469,37.951172 c -0.56447,1.377209 -1.75442,2.385683 -3.20508,2.71875 l -53.910156,12.378906 c -6.138472,1.409373 -10.531253,6.9244682 -10.53125,13.2226564 V 44.882812 c -2.8e-5,6.382176 4.510422,11.948209 10.753907,13.271485 L 142.3457,68.806641 c 1.48774,0.315276 2.71052,1.339218 3.28321,2.748047 l 17.13671,42.156252 c 0.57494,1.41433 0.4084,3.00771 -0.44531,4.27344 l -27.36328,40.56835 c -3.64111,5.39822 -2.90516,12.70287 1.74024,17.26563 l 36.07812,35.43555 c 4.52514,4.44458 11.60036,5.15099 16.91406,1.6875 l 40.53516,-26.42188 c 1.31452,-0.85681 2.96083,-0.98073 4.38867,-0.33008 l 13.07031,5.95703 c 6.57848,2.99772 14.46533,0.23118 17.73047,-6.21875 l 8.57227,-16.93359 a 4.5004505,4.5004505 0 1 0 -8.0293,-4.06445 l -8.57226,16.93359 c -1.12734,2.22693 -3.69744,3.12875 -5.96875,2.09375 L 238.34375,178 c -4.22056,-1.92326 -9.14762,-1.55218 -13.0332,0.98047 l -40.53516,26.41992 c -1.81741,1.1846 -4.14566,0.95375 -5.69336,-0.56641 l -36.07812,-35.43554 c -1.59134,-1.56303 -1.83325,-3.96328 -0.58594,-5.8125 l 27.36328,-40.56836 c 2.52469,-3.74317 3.02253,-8.51267 1.32227,-12.69531 L 153.9668,68.164062 c -1.69372,-4.166647 -5.35584,-7.22967 -9.75586,-8.162109 L 93.953125,49.351562 c -2.136183,-0.452753 -3.61915,-2.285114 -3.619141,-4.46875 V -3.4628906 c -10e-7,-2.153264 1.446263,-3.9693268 3.544922,-4.4511719 L 147.78906,-20.292969 c 4.29183,-0.985393 7.84756,-4.001634 9.51758,-8.076172 l 15.55469,-37.951171 c 1.71884,-4.193838 1.22676,-8.984602 -1.31055,-12.740235 l -29.05664,-43.009763 c -1.24926,-1.84918 -1.00785,-4.25043 0.58398,-5.81446 l 36.12696,-35.49804 c 1.52617,-1.49953 3.81912,-1.74752 5.63086,-0.60938 l 47.60937,29.90821 c 3.67867,2.3109 8.25336,2.72036 12.28321,1.09765 l 34.99609,-14.09375 h 0.002 c 4.16997,-1.67928 7.24496,-5.32649 8.19336,-9.7207 l 11.49414,-53.26172 c 0.45393,-2.10305 2.24912,-3.57319 4.40039,-3.60352 l 52.00782,-0.73242 c 2.18893,-0.0309 4.04194,1.43194 4.51953,3.56836 l 12.07422,54.00977 v 0.002 c 0.97354,4.35495 4.03757,7.96188 8.17773,9.62695 l 35.15039,14.13672 c 3.97977,1.60059 8.49496,1.22189 12.15234,-1.01953 l 48.57618,-29.77148 c 1.84044,-1.12789 4.14966,-0.83879 5.65625,0.70703 l 35.31836,36.23828 c 1.51785,1.55743 1.73902,3.89332 0.53906,5.70703 l -29.31055,44.302735 c -2.59006,3.914873 -2.97104,8.909831 -1.0039,13.171875 l 17.17968,37.216797 c 1.79294,3.88455 5.32214,6.702162 9.50782,7.587891 l 51.93164,10.9902339 c 2.15323,0.4556227 3.64136,2.3089497 3.62109,4.5097656 l -0.45117,49.0800785 c -0.0202,2.190398 -1.52912,4.009287 -3.67774,4.435546 l -49.51758,9.824219 c -4.47243,0.88731 -8.21058,3.975316 -9.92773,8.199219 l -17.11523,42.09766 c -1.70093,4.184 -1.20438,8.95553 1.32226,12.69922 l 27.37696,40.5625 c 1.24776,1.84877 1.00477,4.24704 -0.58594,5.81054 l -36.16602,35.54883 c -1.52197,1.49588 -3.80646,1.74649 -5.61719,0.61719 l -42.99218,-26.8125 c -3.94002,-2.45741 -8.88054,-2.72719 -13.06446,-0.71289 l -11.08398,5.33593 c -2.38951,1.15042 -5.11352,0.13761 -6.16992,-2.29492 l -8.84571,-20.36914 a 4.5004505,4.5004505 0 1 0 -8.25586,3.58399 l 8.84766,20.36914 c 3.0433,7.00766 11.44441,10.13444 18.32813,6.82031 l 11.08398,-5.33594 c 1.41548,-0.68146 3.06548,-0.59114 4.39844,0.24024 l 42.99023,26.8125 c 5.29876,3.30471 12.23567,2.54148 16.68946,-1.83594 l 36.16796,-35.54688 c 4.64359,-4.56414 5.37684,-11.8687 1.73438,-17.26562 l -27.375,-40.5625 c -0.85437,-1.26591 -1.02047,-2.85864 -0.44531,-4.27344 l 17.11328,-42.099608 c 0.58074,-1.428527 1.82922,-2.459677 3.34179,-2.759766 l 49.51758,-9.824218 c 6.27874,-1.245625 10.86679,-6.780814 10.92578,-13.181641 l 0.45313,-49.0800782 c 0.0592,-6.429551 -4.46727,-12.0654098 -10.75781,-13.3964848 L 516.22266,-27.71875 c -1.41417,-0.299251 -2.59346,-1.242256 -3.19922,-2.554688 l -17.17969,-37.216796 c -0.66565,-1.442213 -0.53855,-3.108859 0.33789,-4.433594 l 29.31055,-44.302732 c 3.50794,-5.30219 2.83767,-12.40212 -1.59961,-16.95508 l -35.31836,-36.23828 c -4.40612,-4.52084 -11.42024,-5.39818 -16.80274,-2.09961 l -48.57812,29.77148 c -1.23573,0.75731 -2.74519,0.88455 -4.08984,0.34375 l -35.15235,-14.13867 c -1.39969,-0.56292 -2.42282,-1.76793 -2.75195,-3.24023 L 369.125,-212.79297 c -1.39551,-6.24267 -7.03374,-10.69489 -13.42969,-10.60547 z"
       id="path2176"
       inkscape:connector-curvature="0" />
    <path
       style="color:#000000;font-style:normal;font-variant:normal;font-weight:normal;font-stretch:normal;font-size:medium;line-height:normal;font-family:sans-serif;font-variant-ligatures:normal;font-variant-position:normal;font-variant-caps:normal;font-variant-numeric:normal;font-variant-alternates:normal;font-feature-settings:normal;text-indent:0;text-align:start;text-decoration:none;text-decoration-line:none;text-decoration-style:solid;text-decoration-color:#000000;letter-spacing:normal;word-spacing:normal;text-transform:none;writing-mode:lr-tb;direction:ltr;text-orientation:mixed;dominant-baseline:auto;baseline-shift:baseline;text-anchor:start;white-space:normal;shape-padding:0;clip-rule:nonzero;display:inline;overflow:visible;visibility:visible;opacity:1;isolation:auto;mix-blend-mode:normal;color-interpolation:sRGB;color-interpolation-filters:linearRGB;solid-color:#000000;solid-opacity:1;vector-effect:none;fill:none;fill-opacity:1;fill-rule:evenodd;stroke:#ff0000;stroke-width:0.3;stroke-linecap:butt;stroke-linejoin:miter;stroke-miterlimit:4;stroke-dasharray:none;stroke-dashoffset:0;stroke-opacity:1;color-rendering:auto;image-rendering:auto;shape-rendering:auto;text-rendering:auto;enable-background:accumulate"
       d="m 468.72461,-133.71289 c -3.2954,0.16196 -6.53348,1.50948 -8.99414,4.00391 l -98.95703,100.314449 c -6.93626,7.031579 -3.96977,19.318275 5.41015,22.4121091 l 9.04883,2.984375 c 5.07204,1.6729808 10.68523,0.1988067 14.28125,-3.75 L 481.78906,-109.07617 c 5.16381,-5.67034 4.5437,-14.65703 -1.35156,-19.5625 h -0.002 l -2.36914,-1.97266 c -2.6934,-2.24112 -6.0464,-3.26352 -9.3418,-3.10156 z m 0.43945,8.94922 c 1.09928,-0.054 2.219,0.29856 3.14649,1.07031 l 2.36914,1.97266 c 2.04723,1.7035 2.24829,4.61681 0.45508,6.58593 l -92.27539,101.328129 c -1.22081,1.340576 -3.08475,1.829677 -4.80665,1.261719 l -9.05078,-2.986328 c -3.39406,-1.119484 -4.33015,-4.998637 -1.82031,-7.542969 l 98.95703,-100.314451 c 0.84735,-0.85897 1.92611,-1.32098 3.02539,-1.375 z"
       id="path2178"
       inkscape:connector-curvature="0" />
    <path
       style="font-style:normal;font-variant:normal;font-weight:normal;font-stretch:normal;font-size:10.45306873px;line-height:103.99999619%;font-family:BubbleGum;-inkscape-font-specification:BubbleGum;text-align:center;letter-spacing:0px;word-spacing:0px;text-anchor:middle;fill:none;fill-opacity:1;stroke:#ffff00;stroke-width:1;stroke-linecap:round;stroke-miterlimit:4;stroke-dasharray:none;stroke-opacity:1;opacity:0.5"
       d="m 275.00534,156.5533 c -17.06372,-9.73429 -30.27144,-24.95251 -41.356,-40.84352 -5.51913,-7.91215 -9.06441,-17.149869 -11.97243,-26.347979 -3.56136,-11.26447 -5.24312,-23.08995 -6.55179,-34.83131 -1.22823,-11.01831 -2.09267,-22.18748 -1.19972,-33.23804 0.86049,-10.650079 2.74122,-21.35205946 6.28424,-31.43227 4.36513,-12.419109 9.68812,-25.003109 18.19035,-35.053069 5.97549,-7.06341 14.06342,-12.24447 22.17731,-16.69015 6.28593,-3.44401 13.09483,-6.2261 20.14417,-7.5208 22.19452,-4.07613 67.69579,-0.40228 67.69579,-0.40228 l 10.31833,1.55615 c 7.136,1.07622 10.21561,9.6529 5.39411,15.02269 l -3.95478,4.40441 c -2.15871,2.40426 -5.4339,3.47794 -8.59705,2.81836 l -3.34687,-0.69794 c -16.09005,-2.78525 -32.48913,-4.68672 -48.80073,-2.89876 -6.8834,0.56546 -13.86078,2.1535 -20.26779,4.68213 -5.75621,2.67558 -12.01336,7.41285 -11.25164,14.48285 0.85767,9.25951 9.16009,15.573309 16.12025,20.7780494 8.72462,5.9010701 18.68283,10.60176014 28.28065,14.1050101 -2.78892,14.4942295 -7.91098,29.1655595 -6.50071,44.0108095 7.53279,15.09329 26.8526,-7.21145 32.33166,-16.50624 4.60135,-6.13283 13.33924,-19.606409 13.33924,-19.606409 0,0 18.63908,3.723449 33.89178,4.059539 8.79065,-1.52021 18.14293,-1.00197 26.09003,-5.584999 3.92938,-1.3554105 8.12207,-3.2051705 9.94325,-6.7794605 2.1957,-4.30972996 2.4765,-10.1825001 -0.43463,-14.5039905 l -1.28466,-1.28894 c -3.32345,-3.33449 -3.54189,-8.657899 -0.50265,-12.253419 l 1.67613,-1.98286 c 3.4575,-4.09067 9.68897,-4.30826 13.42361,-0.46877 l 1.9702,2.02557 c 0.38748,0.39841 0.73773,0.83165 1.04592,1.29418 l 8.26093,12.397829 c 3.24244,7.8794105 6.882,15.6459505 7.52771,24.263351 2.12458,9.366049 1.03264,19.074129 0.59013,28.562869 -2.35204,15.71165 -6.0311,31.40083 -13.37734,45.58946 -4.3118,11.76335 -12.18636,21.563589 -18.85018,32.030879 -8.41672,8.72683 -15.91255,18.47503 -26.21873,25.10668 -3.21029,2.4265 -6.42027,4.85302 -9.63057,7.27949"
       id="path2417"
       inkscape:connector-curvature="0"
       sodipodi:nodetypes="caaaaaaaaccccccccccccccacccccccccccccccc" />
    <path
       sodipodi:nodetypes="ccccc"
       inkscape:connector-curvature="0"
       id="path2419"
       d="m 363.97788,-26.234358 a 9.0666668,9.0666668 0 0 0 3.61469,14.977589 l 9.05031,2.9852304 a 9.0666668,9.0666668 0 0 0 9.54363,-2.5057104 l 92.27595,-101.328511 a 9.0666668,9.0666668 0 0 0 -0.90424,-13.07411 l -2.37011,-1.97205 a 9.0666668,9.0666668 0 0 0 -12.25381,0.60223 z"
       style="fill:none;fill-rule:evenodd;stroke:#ffff00;stroke-width:1;stroke-linecap:butt;stroke-linejoin:miter;stroke-miterlimit:4;stroke-dasharray:none;stroke-opacity:1;opacity:0.5" />
    <path
       sodipodi:nodetypes="cccccccccccccccccccccccccccccccc"
       inkscape:connector-curvature="0"
       id="path2421"
       d="m 269.97191,166.9614 -8.57278,16.93463 a 9.0666668,9.0666668 0 0 1 -11.84882,4.15544 l -13.07169,-5.95673 a 9.0666668,9.0666668 0 0 0 -8.7105,0.65482 l -40.53587,26.42142 a 9.0666668,9.0666668 0 0 1 -11.30413,-1.1272 l -36.07731,-35.43557 a 9.0666668,9.0666668 0 0 1 -1.16332,-11.53837 l 27.36398,-40.56914 a 9.0666668,9.0666668 0 0 0 0.88251,-8.48419 L 149.79773,69.859551 a 9.0666668,9.0666668 0 0 0 -6.51961,-5.45544 L 93.020828,53.752961 a 9.0666668,9.0666668 0 0 1 -7.18679,-8.86968 V -3.4629485 a 9.0666668,9.0666668 0 0 1 7.03778,-8.8367505 l 53.911212,-12.378209 a 9.0666668,9.0666668 0 0 0 6.36045,-5.39823 l 15.55496,-37.9515 a 9.0666668,9.0666668 0 0 0 -0.87659,-8.51405 l -29.05703,-43.010472 a 9.0666668,9.0666668 0 0 1 1.15852,-11.54289 l 36.1284,-35.4976 a 9.0666668,9.0666668 0 0 1 11.17741,-1.21014 l 47.60976,29.90844 a 9.0666668,9.0666668 0 0 0 8.20956,0.73293 l 34.99612,-14.09211 a 9.0666668,9.0666668 0 0 0 5.47568,-6.49749 l 11.49576,-53.26098 a 9.0666668,9.0666668 0 0 1 8.73478,-7.15287 l 52.00705,-0.73403 a 9.0666668,9.0666668 0 0 1 8.97636,7.08779 l 12.07347,54.01005 a 9.0666668,9.0666668 0 0 0 5.46523,6.43385 l 35.15106,14.13702 a 9.0666668,9.0666668 0 0 0 8.12067,-0.6814 l 48.57724,-29.77021 a 9.0666668,9.0666668 0 0 1 11.23045,1.4023 l 35.31844,36.23847 a 9.0666668,9.0666668 0 0 1 1.06849,11.33083 l -29.3102,44.302792 a 9.0666668,9.0666668 0 0 0 -0.67056,8.80223 l 17.17831,37.21836 a 9.0666668,9.0666668 0 0 0 6.35508,5.07066 l 51.93086,10.989569 a 9.0666668,9.0666668 0 0 1 7.18934,8.9537505 l -0.45212,49.0794995 a 9.0666668,9.0666668 0 0 1 -7.30195,8.80978 l -49.51759,9.82414 a 9.0666668,9.0666668 0 0 0 -6.63474,5.47881 L 493.39144,111.9178 a 9.0666668,9.0666668 0 0 0 0.88392,8.48659 l 27.37556,40.56205 a 9.0666668,9.0666668 0 0 1 -1.15964,11.53829 l -36.16735,35.54802 a 9.0666668,9.0666668 0 0 1 -11.15343,1.22679 l -42.9909,-26.81337 a 9.0666668,9.0666668 0 0 0 -8.73112,-0.47623 l -11.08427,5.33636 a 9.0666668,9.0666668 0 0 1 -12.24931,-4.55758 l -8.84624,-20.36959"
       style="fill:none;fill-rule:evenodd;stroke:#ffff00;stroke-width:1;stroke-linecap:round;stroke-linejoin:miter;stroke-miterlimit:4;stroke-dasharray:none;stroke-opacity:1;opacity:0.5" />
    <g
       id="g4256"
       transform="matrix(0.28222223,0,0,0.28222223,-1093.5295,92.329495)"
       style="opacity:0.8"
       inkscape:transform-center-x="26.162951"
       inkscape:transform-center-y="-3.5355339">
      <circle
         style="opacity:1;fill:#000000;fill-opacity:1;stroke:#808080;stroke-width:47.45883942;stroke-linejoin:miter;stroke-miterlimit:4;stroke-dasharray:none;stroke-opacity:1"
         id="circle4258"
         cx="4135.1406"
         cy="-1153.7916"
         r="22.333572" />
      <circle
         r="14.173228"
         cy="-1153.7916"
         cx="4135.1406"
         id="circle4260"
         style="opacity:1;fill:#000000;fill-opacity:1;stroke:none;stroke-width:30.11811066;stroke-linejoin:miter;stroke-miterlimit:4;stroke-dasharray:none;stroke-opacity:1" />
      <circle
         style="opacity:1;fill:none;fill-opacity:1;stroke:#000000;stroke-width:1.77165353;stroke-linejoin:miter;stroke-miterlimit:4;stroke-dasharray:none;stroke-opacity:1"
         id="circle4262"
         cx="4135.1406"
         cy="-1153.7916"
         r="30.118111" />
    </g>
  </g>
</svg>
